# xmcd
# Track frame offsets:
# 150
# 12485
# 26725
# 38207
# 52997
# 71710
# 85262
# 102017
# 113873
# 128255
# 145540
# 160662
# 174435
# 189767
# 203967
#
# Disc length: 2936 seconds
# Revision: 0
# Processed by: cddbd v1.4PL0 Copyright (c) Steve Scherf et al.
# Submitted via: VisiTrax 2.9.5.180 - For more info visit www.synapsa.com
#
DISCID=b90b760f
DTITLE=Brent Moyer - Point of view
DYEAR=1900
DGENRE=
TTITLE0=Point of view
TTITLE1=Miss pretty please
TTITLE2=Les bon temps
TTITLE3=Red lips, blue eyes, little white lies
TTITLE4=Western fire
TTITLE5=Not through leavin' yet
TTITLE6=There she goes
TTITLE7=Labor of love
TTITLE8=Just let her go
TTITLE9=Blueberry winter
TTITLE10=Lonesome blue goodbye
TTITLE11=Head over heels
TTITLE12=When the sun goes down in Santa Fe
TTITLE13=All the tea in China
TTITLE14=Steady as a heartbeat
EXTD=
EXTT0=
EXTT1=
EXTT2=
EXTT3=
EXTT4=
EXTT5=
EXTT6=
EXTT7=
EXTT8=
EXTT9=
EXTT10=
EXTT11=
EXTT12=
EXTT13=
EXTT14=
PLAYORDER=
